<?xml version="1.0" standalone="no"?>
<!DOCTYPE svg PUBLIC "-//W3C//DTD SVG 20010904//EN"
 "http://www.w3.org/TR/2001/REC-SVG-20010904/DTD/svg10.dtd">
<svg version="1.0" xmlns="http://www.w3.org/2000/svg"
 width="100.000000pt" height="60.000000pt"
 preserveAspectRatio="xMidYMid meet">
<g transform="translate(0.000000,60.000000) scale(0.100000,-0.100000)"
fill="#000000" stroke="none">
<path d="M140 365 l0 -225 78 2 77 2 -72 3 -73 4 0 214 0 214 73 4 72 3 -77 2
-78 2 0 -225z"/>
<path d="M808 583 l72 -4 0 -214 0 -214 -72 -4 -73 -3 78 -2 77 -2 0 225 0
225 -77 -2 -78 -2 73 -3z"/>
<path d="M397 531 c-58 -38 -88 -92 -88 -165 -1 -61 15 -97 63 -143 42 -40 76
-53 142 -53 107 0 192 76 202 181 7 69 -22 130 -84 176 -40 30 -50 33 -116 33
-63 0 -78 -4 -119 -29z m190 -10 c57 -26 103 -91 103 -144 0 -82 -70 -169
-146 -183 -119 -22 -227 82 -209 201 5 35 16 56 45 85 60 60 133 74 207 41z"/>
<path d="M450 513 c-40 -15 -90 -82 -90 -122 0 -28 38 -16 73 23 26 30 28 30
42 12 8 -11 16 -18 18 -15 2 2 11 16 20 32 23 35 33 34 57 -5 11 -18 20 -27
20 -20 0 19 24 14 40 -8 20 -28 43 -26 35 3 -21 68 -76 107 -150 106 -27 0
-57 -3 -65 -6z"/>
<path d="M637 329 c-15 -4 -58 -10 -95 -14 -37 -3 -86 -13 -110 -22 l-43 -15
21 -23 c32 -34 99 -50 147 -35 54 18 88 45 103 80 15 37 13 39 -23 29z"/>
<path d="M224 525 c-8 -20 4 -35 26 -35 25 0 35 17 20 35 -16 19 -39 19 -46 0z"/>
<path d="M643 75 c0 -38 2 -53 4 -32 2 20 2 52 0 70 -2 17 -4 1 -4 -38z"/>
<path d="M42 123 l38 -4 0 -50 c0 -44 -2 -49 -23 -49 -13 0 -28 5 -35 12 -9 9
-12 8 -12 -5 0 -13 9 -17 45 -17 l45 0 0 60 0 60 -47 -2 c-44 -1 -45 -2 -11
-5z"/>
<path d="M550 108 c0 -9 -6 -19 -12 -21 -10 -4 -10 -6 0 -6 7 -1 12 -15 12
-36 0 -32 2 -35 28 -34 23 2 24 2 5 6 -18 3 -23 11 -23 34 0 23 4 29 23 30 14
0 17 2 7 6 -8 3 -21 12 -27 21 -12 14 -13 14 -13 0z"/>
<path d="M445 89 c-29 -6 -29 -7 8 -8 36 -1 38 -3 35 -28 -2 -22 -9 -29 -30
-31 -16 -2 -28 1 -28 7 0 6 9 11 20 11 11 0 20 5 20 10 0 6 -6 10 -14 10 -28
0 -46 -12 -46 -31 0 -16 8 -19 45 -19 l45 0 0 39 c0 43 -10 51 -55 40z"/>
<path d="M934 89 c-3 -5 6 -9 20 -9 21 0 25 -5 29 -37 l4 -38 1 41 c2 37 -1
42 -23 46 -14 3 -28 1 -31 -3z"/>
<path d="M150 50 l0 -40 45 0 45 0 0 40 0 40 -45 0 -45 0 0 -40z m80 0 c0 -28
-3 -30 -35 -30 -32 0 -35 2 -35 30 0 28 3 30 35 30 32 0 35 -2 35 -30z"/>
<path d="M280 50 c0 -22 5 -40 10 -40 6 0 10 18 10 40 0 22 -4 40 -10 40 -5 0
-10 -18 -10 -40z"/>
<path d="M333 83 c23 -4 27 -9 27 -39 0 -19 5 -34 11 -34 6 0 9 16 7 38 -3 35
-5 37 -38 38 -26 1 -28 1 -7 -3z"/>
<path d="M688 83 c18 -4 22 -11 22 -39 0 -19 5 -34 10 -34 6 0 10 18 10 40 0
39 -1 40 -32 39 -24 -1 -27 -3 -10 -6z"/>
<path d="M808 83 c32 -4 36 -10 32 -50 -1 -13 3 -23 9 -23 6 0 11 18 11 40 l0
40 -42 -2 c-37 -1 -39 -2 -10 -5z"/>
<path d="M900 50 c0 -22 5 -40 10 -40 6 0 10 18 10 40 0 22 -4 40 -10 40 -5 0
-10 -18 -10 -40z"/>
<path d="M777 53 c-4 -3 -7 -15 -7 -25 0 -14 7 -18 33 -17 31 2 31 2 4 6 -29
5 -33 28 -4 28 8 0 19 4 23 8 4 4 -4 7 -18 7 -13 0 -28 -3 -31 -7z"/>
</g>
</svg>
